# xmcd
#
# Track frame offsets:
#  150
#  2692
#  30916
#  50010
#  68555
#  99755
#  116967
#  138731
#  156744
#  177776
#  189129
#  215006
#  234177
#
# Disc length: 3419 seconds
#
# Revision: 0
# Processed by: cddbd v1.5.1PL0 Copyright (c) Steve Scherf et al.
# Submitted via: AltoMP3_Maker 3.0
#
DISCID=a90d590d
DTITLE=Nickel Creek - Live at the Paramount Theater
DYEAR=1900
DGENRE=
TTITLE0=Into
TTITLE1=Scotch and Chocolate
TTITLE2=I Should've Known Better
TTITLE3=When You Come Back Down
TTITLE4=The House of Tom Bombadil/Big Sciota
TTITLE5=Speak
TTITLE6=Trouble
TTITLE7=Rain Through My Window
TTITLE8=Smoothie Song
TTITLE9=Caleb Meyer
TTITLE10=Sweet Afton
TTITLE11=Cuckoo's Nest
TTITLE12=Out of the Woods
EXTD=
EXTT0=
EXTT1=
EXTT2=
EXTT3=
EXTT4=
EXTT5=
EXTT6=
EXTT7=
EXTT8=
EXTT9=
EXTT10=
EXTT11=
EXTT12=
PLAYORDER=
